<svg width="410" height="358" viewBox="0 0 410 358" fill="none" xmlns="http://www.w3.org/2000/svg">
<path d="M227.465 298.922C294.531 298.922 348.899 288.172 348.899 274.91C348.899 261.649 294.531 250.898 227.465 250.898C160.399 250.898 106.031 261.649 106.031 274.91C106.031 288.172 160.399 298.922 227.465 298.922Z" fill="#330C10"/>
<path d="M238.037 257.258L243.922 260.735C300.414 267.055 319.943 240.161 329.477 207.161C339.011 174.16 317.859 141.361 287.126 122.852C256.394 104.342 221.868 105.563 221.868 105.563L205.283 112.032L212.805 114.925L198.918 124.761L205.861 129.968L194.289 139.226L207.597 152.534L195.446 165.833L238.037 257.258Z" fill="#E3867B"/>
<path d="M226.898 131.55C224.77 131.55 221.046 138.466 218.918 136.338C218.316 135.736 212.215 129.72 203.658 121.406L198.918 124.764L205.861 129.971L195.016 138.647C202.99 145.898 208.606 151.274 208.278 151.765C207.214 153.361 203.49 157.617 205.086 158.149C206.682 158.681 237.004 166.128 235.94 162.937C234.878 159.744 229.026 131.55 226.898 131.55Z" fill="#D35F5F"/>
<path d="M228.084 217.015L240.681 193.42L220.391 190.886L217.997 168.015L199.061 164.741L199.08 161.859L195.445 165.837L235.357 251.513C243.803 245.885 249.352 241.436 249.352 241.436L240.918 242.091L250.676 211.696L228.084 217.015Z" fill="#D35F5F"/>
<path d="M238.437 255.121L244.203 258.527C299.549 264.719 318.682 238.371 328.023 206.039C337.364 173.708 316.64 141.573 286.531 123.439C256.422 105.305 222.597 106.501 222.597 106.501L206.348 112.839L213.717 115.673L200.112 125.31L206.915 130.412L195.578 139.482L208.616 152.52L196.712 165.549L238.437 255.121Z" fill="#5B2325"/>
<path d="M276.962 134.173C257.875 125.402 238.063 120.106 225.738 116.883C221.949 117.119 218.146 117.292 214.328 117.4C215.493 117.773 216.66 118.141 217.831 118.502C216.643 119.172 215.449 119.835 214.247 120.493C214.6 120.681 214.954 120.868 215.308 121.055C214.236 121.263 213.16 121.467 212.083 121.666C210.244 122.654 208.388 123.627 206.517 124.585C216.244 128.166 226.201 131.338 236.36 134.077C233.35 138.94 230.227 143.766 226.993 148.55C233.277 153.404 239.802 158.1 246.562 162.618C242.292 164.671 237.953 166.654 233.547 168.563C236.966 173.703 240.527 178.8 244.229 183.846C235.613 188.932 226.67 193.744 217.414 198.253C221.863 205.219 226.552 212.117 231.48 218.932C216.223 220.266 200.771 220.812 185.186 220.533C194.128 227.223 203.446 233.644 213.126 239.762C201.121 241.763 188.911 243.297 176.523 244.338C176.765 247.119 177.019 249.901 177.285 252.683C180.171 254.923 183.095 257.136 186.057 259.323C191.624 260.955 197.095 262.33 202.467 263.482C242.169 268.69 271.229 261.238 290.959 249.558C310.841 237.703 321.392 221.621 327.583 205.541C339.29 172.318 308.371 149.208 276.962 134.173Z" fill="#330C10"/>
<path d="M257.547 251.243C257.547 251.243 253.255 266.509 253.864 276.164C254.473 285.819 259.637 279.483 259.637 279.483C259.637 279.483 261.597 288.806 266.436 285.635C271.275 282.463 286.597 260.522 287.477 254.688C288.357 248.852 257.547 251.243 257.547 251.243Z" fill="#E3867B"/>
<path opacity="0.5" d="M257.547 251.243C257.547 251.243 253.255 266.509 253.864 276.164C254.473 285.819 259.637 279.483 259.637 279.483C259.637 279.483 261.597 288.806 266.436 285.635C271.275 282.463 286.597 260.522 287.477 254.688C288.357 248.852 257.547 251.243 257.547 251.243Z" fill="#D35F5F"/>
<path d="M244.587 260.594L238.7 257.127L266.5 241.588L246.314 230.152L271.579 221.494L257.668 204.122L271.442 185.83L259.772 170.608L267.921 161.979L248.299 148.31L251.04 128.021L221.305 122.881L228.243 111.174L221.323 110.217C221.323 110.217 221.323 110.217 222.358 106.124C222.358 106.124 256.872 104.95 287.617 123.409C318.362 141.868 339.547 174.539 330.055 207.373C320.563 240.207 301.069 266.951 244.587 260.594Z" fill="#F59B87"/>
<path opacity="0.5" d="M330.941 206.745C330.495 206.281 330.049 205.82 329.601 205.349C329.126 204.851 328.65 204.35 328.174 203.847C325.084 200.583 322.024 197.276 319.399 194.431C318.591 193.556 317.824 192.724 317.111 191.95C316.661 191.463 316.236 191.002 315.831 190.565C315.605 190.321 315.384 190.083 315.174 189.856C313.517 188.071 312.354 186.843 311.936 186.485C311.862 186.422 311.767 186.37 311.656 186.325C309.624 185.513 301.601 187.884 294.443 190.777C293.999 190.957 293.558 191.138 293.123 191.321C292.687 191.504 292.258 191.688 291.833 191.873C291.312 192.1 290.801 192.329 290.303 192.557C289.99 192.7 289.682 192.843 289.38 192.986C289.184 193.079 288.991 193.171 288.801 193.263C288.515 193.402 288.237 193.54 287.963 193.677C287.784 193.767 287.609 193.856 287.436 193.945C284.179 195.625 282.011 197.164 282.234 198.057C282.281 198.245 282.395 198.506 282.566 198.827C282.57 198.834 282.571 198.839 282.575 198.846C282.662 199.009 282.765 199.188 282.881 199.38C282.883 199.383 282.884 199.385 282.886 199.388C282.995 199.568 283.119 199.764 283.252 199.969C283.264 199.988 283.273 200.003 283.286 200.022C283.428 200.24 283.585 200.472 283.753 200.715C283.759 200.723 283.763 200.73 283.769 200.738C288.479 207.547 302.833 223.729 312.601 227.711C312.603 227.712 312.606 227.713 312.608 227.714C312.642 227.728 312.675 227.745 312.709 227.758C315.5 228.874 318.519 229.512 321.7 229.777C325.594 222.859 328.51 215.191 330.831 207.158C330.868 207.021 330.902 206.883 330.941 206.745Z" fill="#D35F5F"/>
<path d="M227.093 131.743C224.965 131.743 221.241 138.659 219.113 136.531C218.52 135.938 212.586 130.087 204.226 121.961L200.27 124.763L207.213 129.97L195.641 139.228L195.668 139.255C203.399 146.295 208.795 151.476 208.474 151.958C208.462 151.976 208.445 152 208.432 152.019L208.95 152.537L205.3 156.532C204.833 157.431 204.69 158.144 205.283 158.342C206.879 158.874 237.201 166.322 236.137 163.13C235.072 159.937 229.221 131.743 227.093 131.743Z" fill="#330C10"/>
<path d="M228.165 218.173L240.906 194.656L220.632 191.998L218.377 169.113L199.461 165.723L199.497 162.883L196.797 165.838L236.787 251.682C244.386 246.603 249.282 242.725 249.282 242.725L240.844 243.329L250.787 212.994L228.165 218.173Z" fill="#330C10"/>
<path d="M252.19 140.871L250.433 138.234L249.93 141.943L252.19 140.871Z" fill="#E3867B"/>
<path d="M223.221 105.563C222.181 109.677 222.181 109.677 222.181 109.677L229.102 110.63L222.148 122.4L242.185 125.856L236.288 117.005L241.912 106.9C230.754 105.297 223.221 105.563 223.221 105.563Z" fill="#E3867B"/>
<path opacity="0.5" d="M330.056 207.373C336.911 183.662 327.763 160.039 310.575 141.789C319.802 168.335 318.64 196.621 301.613 218.823C285.984 239.201 267.051 255.226 240.385 256.701L239.391 257.26L245.122 260.646C301.187 266.772 320.594 240.103 330.056 207.373Z" fill="#D35F5F"/>
<path d="M228.775 119.422L223.719 119.739L222.148 122.398L227.425 123.308L228.775 119.422Z" fill="#E3867B"/>
<path d="M226.678 114.731C234.908 113.383 253.053 111.376 273.305 115.282C247.402 104.711 223.22 105.563 223.22 105.563C222.18 109.677 222.18 109.677 222.18 109.677L229.101 110.63L226.678 114.731Z" fill="#F59B87"/>
<path d="M249.31 115.343C258.186 115.857 270.252 119.314 271.544 120.607C272.889 121.569 273.276 122.81 271.017 122.113C268.512 121.002 255.271 119.228 247.974 119.271C239.917 119.245 232.739 114.911 249.31 115.343Z" fill="#D35F5F"/>
<path d="M234.832 245.445C234.832 245.445 243.776 258.54 246.283 267.883C248.79 277.227 241.873 272.872 241.873 272.872C241.873 272.872 242.994 282.333 237.395 280.873C231.796 279.413 210.268 263.517 207.57 258.269C204.873 253.023 234.832 245.445 234.832 245.445Z" fill="#E3867B"/>
<path opacity="0.5" d="M234.832 245.445C234.832 245.445 243.776 258.54 246.283 267.883C248.79 277.227 241.873 272.872 241.873 272.872C241.873 272.872 242.994 282.333 237.395 280.873C231.796 279.413 210.268 263.517 207.57 258.269C204.873 253.023 234.832 245.445 234.832 245.445Z" fill="#D35F5F"/>
<path d="M187.976 258.758C187.976 258.758 200.311 269.147 204.72 276.972C209.13 284.798 200.559 281.763 200.559 281.763C200.559 281.763 203.417 289.838 196.826 289.17C190.235 288.502 163.167 277.028 159.228 272.77C155.29 268.513 187.976 258.758 187.976 258.758Z" fill="#E3867B"/>
<path opacity="0.5" d="M187.976 258.758C187.976 258.758 200.311 269.147 204.72 276.972C209.13 284.798 200.559 281.763 200.559 281.763C200.559 281.763 203.417 289.838 196.826 289.17C190.235 288.502 163.167 277.028 159.228 272.77C155.29 268.513 187.976 258.758 187.976 258.758Z" fill="#D35F5F"/>
<path d="M113.301 160.322C113.301 160.322 118.008 153.881 120.717 151.675C123.016 155.241 123.016 155.241 123.016 155.241L128.433 150.83L132.298 163.943L156.331 145.693L157.564 149.029C157.564 149.029 166.799 139.861 174.076 139.759C181.353 139.656 188.64 145.974 185.552 158.98C192.757 156.629 192.757 156.629 192.757 156.629L193.538 168.518L212.662 170.416L216.703 193.054L237.123 194.115L226.263 218.558L248.411 211.621L240.875 242.642L249.24 241.379C249.24 241.379 213.639 274.432 185.323 278.92C157.007 283.409 112.21 277.641 100.647 229.102C95.6983 202.919 98.4133 196.808 98.4133 196.808C98.4133 196.808 68.6673 188.836 113.301 160.322Z" fill="#F59B87"/>
<path d="M106.414 178.133C106.414 178.133 95.5342 179.598 92.9122 183.89C90.2902 188.182 98.1802 193.766 102.663 194.147C107.144 194.528 108.648 179.186 106.414 178.133Z" fill="#D35F5F"/>
<path d="M113.303 160.322C113.303 160.322 118.01 153.881 120.719 151.675C123.018 155.241 123.018 155.241 123.018 155.241L128.435 150.83L132.3 163.943L156.333 145.693L157.566 149.029C157.566 149.029 166.801 139.861 174.078 139.759C181.355 139.656 188.642 145.974 185.554 158.98C192.759 156.629 192.759 156.629 192.759 156.629L193.54 168.518L212.664 170.416L216.705 193.054L237.125 194.115L226.265 218.558L248.413 211.621L240.877 242.642L249.242 241.379C249.242 241.379 213.641 274.432 185.325 278.92C157.009 283.409 112.212 277.641 100.649 229.102C95.7 202.919 98.415 196.808 98.415 196.808C98.415 196.808 102.639 174.964 113.303 160.322Z" fill="#E3867B"/>
<path d="M126.709 214.637C124.059 180.716 128.091 173.618 128.091 173.618C128.091 173.618 129.405 169.165 131.964 162.799L128.435 150.828L123.018 155.239C123.018 155.239 123.018 155.239 120.719 151.673C118.01 153.879 113.303 160.32 113.303 160.32C102.639 174.962 98.415 196.806 98.415 196.806C98.415 196.806 95.7 202.917 100.649 229.1C109.925 268.043 140.592 279.452 166.979 280.124C147.248 268.168 130.779 247.788 126.709 214.637Z" fill="#F59B87"/>
<path d="M247.459 241.651L247.047 243.347C248.459 242.106 249.239 241.383 249.239 241.383L247.459 241.651Z" fill="#E3867B"/>
<g opacity="0.5">
<path d="M243.385 232.32C230.471 246.228 211.196 264.165 192.794 270.502C178.363 275.471 159.56 278.68 141.18 275.636C156.189 280.883 172.459 280.962 185.326 278.923C213.642 274.434 249.243 241.381 249.243 241.381L240.878 242.644L243.385 232.32Z" fill="#D35F5F"/>
</g>
<path opacity="0.5" d="M140.801 214.207C142.158 213.582 143.565 213.067 145.015 212.695C155.232 210.076 165.691 210.27 170.588 212.913C181.996 219.07 187.884 229.551 174.91 248.171C172.477 251.662 169.621 254.419 166.532 256.55L163.355 258.496C149.838 268.907 131.068 266.414 124.271 260.863C116.187 254.261 109.022 237.956 120.748 226C120.934 225.81 121.121 225.618 121.309 225.425C123.927 222.729 127.018 220.551 130.423 218.984L140.801 214.207Z" fill="#D35F5F"/>
<path d="M132.923 215.705C134.368 215.036 135.865 214.48 137.405 214.073C148.258 211.206 159.328 211.266 164.477 213.952C176.472 220.209 182.563 231.044 168.573 250.612C165.95 254.281 162.888 257.191 159.589 259.452L156.199 261.522C141.746 272.548 121.907 270.207 114.787 264.519C106.318 257.753 98.954 240.87 111.531 228.26C111.731 228.06 111.931 227.857 112.133 227.653C114.942 224.81 118.244 222.5 121.87 220.821L132.923 215.705Z" fill="#D35F5F"/>
<path d="M158.383 213.734C171.067 220.351 178.428 231.094 169.588 249.151C182.24 230.508 176.167 220.056 164.476 213.958C161.851 212.589 157.686 211.904 152.797 211.939C154.994 212.358 156.891 212.956 158.383 213.734Z" fill="#BF4B4B"/>
<path d="M160.449 156.35C160.449 156.35 167.321 147.788 172.35 147.758C177.379 147.728 178.088 157.369 176.1 161.404C174.113 165.44 160.198 158.807 160.449 156.35Z" fill="#D35F5F"/>
<path d="M137.625 193.555C137.625 193.555 148.968 200.469 152.794 202.133" stroke="#5B2325" stroke-width="2.893" stroke-miterlimit="10" stroke-linecap="round"/>
<path d="M149.996 189.25C149.996 189.25 146.114 198.178 143.039 203.374" stroke="#5B2325" stroke-width="2.893" stroke-miterlimit="10" stroke-linecap="round"/>
<path d="M113.133 199.711C113.133 199.711 124.476 206.625 128.302 208.289" stroke="#5B2325" stroke-width="2.893" stroke-miterlimit="10" stroke-linecap="round"/>
<path d="M125.504 195.406C125.504 195.406 121.623 204.334 118.547 209.53" stroke="#5B2325" stroke-width="2.893" stroke-miterlimit="10" stroke-linecap="round"/>
<path d="M158.542 218.379C151.207 214.553 131.559 216.187 118.229 224.194C115.769 225.672 113.524 227.366 111.612 229.284C99.3359 241.592 106.524 258.07 114.79 264.673C121.739 270.224 141.103 272.51 155.208 261.748C157.881 259.709 160.364 257.202 162.539 254.16C176.194 235.061 170.249 224.486 158.542 218.379Z" fill="#E3867B"/>
<path d="M119.851 265.487C110.526 258.038 102.417 239.448 116.266 225.563C116.385 225.444 116.509 225.328 116.63 225.211C114.794 226.436 113.1 227.789 111.612 229.282C99.3359 241.59 106.524 258.068 114.79 264.671C117.428 266.779 121.857 268.413 127.106 269.043C124.125 268.132 121.626 266.906 119.851 265.487Z" fill="#F59B87"/>
<path d="M141.405 233.813C143.032 234.159 147.002 237.329 149.471 240.781C149.926 241.418 150.331 242.065 150.66 242.705C152.772 246.815 150.762 248.878 148.854 248.92C147.25 248.956 143.209 246.567 140.672 242.482C140.191 241.708 139.764 240.873 139.418 239.982C137.245 234.391 138.808 233.261 141.405 233.813Z" fill="#5B2325"/>
<path d="M122.614 242.524C124.135 242.847 127.845 245.81 130.152 249.036C130.578 249.631 130.956 250.236 131.263 250.834C133.237 254.675 131.359 256.603 129.575 256.643C128.076 256.676 124.3 254.444 121.929 250.627C121.48 249.904 121.081 249.123 120.757 248.291C118.727 243.063 120.187 242.007 122.614 242.524Z" fill="#5B2325"/>
<path d="M165.188 269.87C165.188 269.87 165.085 259.244 175.238 263.39" stroke="#5B2325" stroke-width="2.893" stroke-miterlimit="10" stroke-linecap="round"/>
<path d="M163.414 210.891C160.012 213.085 158.167 204.177 157.77 202.138C157.373 200.099 166.816 208.697 163.414 210.891Z" fill="#FAD4BD"/>
<path d="M113.159 219.819C110.142 219.263 113.751 213.388 114.591 212.056C115.431 210.725 116.176 220.375 113.159 219.819Z" fill="#FAD4BD"/>
<path d="M54.827 36.7778C59.083 42.6298 96.117 85.1588 99.841 88.3508C103.565 91.5428 143.994 72.9238 149.314 72.9238C154.634 72.9238 206.96 127.072 209.088 129.2C211.216 131.328 214.94 124.412 217.067 124.412C219.194 124.412 225.046 152.606 226.111 155.798C227.175 158.99 196.853 151.542 195.257 151.01C193.661 150.478 197.385 146.222 198.449 144.626C199.513 143.03 156.23 105.373 154.635 103.777C153.04 102.181 108.354 122.928 105.162 125.056C101.97 127.184 1.63199 37.3088 0.0359856 35.1818C-1.56201 33.0538 50.571 30.9268 54.827 36.7778Z" fill="#FF4545"/>
<path d="M299.21 152.541C301.625 154.611 328.912 185.715 332.769 185.715C336.626 185.715 340.87 178 340.484 176.457C340.098 174.914 350.899 172.6 355.528 171.828C360.157 171.057 369.029 169.128 367.486 172.985C365.943 176.842 357.071 184.943 342.027 189.958C326.983 194.973 311.553 198.444 299.981 193.815C288.409 189.186 270.279 167.199 269.508 164.113C268.736 161.028 296.51 150.227 299.21 152.541Z" fill="#ABD6A7"/>
<path d="M355.528 171.828C350.899 172.599 340.099 174.914 340.484 176.457C340.87 178 336.627 185.715 332.769 185.715C328.912 185.715 301.625 154.611 299.21 152.541C296.51 150.227 268.737 161.027 269.508 164.113C270.277 167.19 288.304 189.056 299.88 193.771C288.538 185.642 276.038 169.817 275.873 168.164C276.837 166.814 275.68 163.342 275.68 163.342C275.68 163.342 285.323 159.292 289.181 158.713C289.952 160.642 296.317 161.027 299.017 160.835C300.367 163.149 303.839 169.128 308.853 174.143C313.868 179.158 323.897 188.801 331.997 188.994C340.098 189.187 344.148 186.294 344.148 186.294C344.148 186.294 341.834 186.487 338.362 187.065C339.519 186.872 342.026 184.365 344.148 182.822C346.848 182.436 349.355 178.193 349.934 178C350.513 177.807 357.649 178 358.613 178.193C358.385 178.421 358.903 179.563 359.85 181.015C364.122 177.889 366.716 174.91 367.485 172.986C369.029 169.128 360.157 171.057 355.528 171.828Z" fill="#5E9659"/>
<path d="M286.244 170.575C286.825 169.563 289.109 168.564 291.081 168.879C291.445 168.937 291.798 169.04 292.128 169.196C294.246 170.196 294.456 173.019 293.941 174.489C293.508 175.725 291.496 177.27 289.269 176.608C288.847 176.482 288.418 176.278 287.99 175.977C285.302 174.085 285.316 172.19 286.244 170.575Z" fill="#5E9659"/>
<path d="M329.645 193.598C329.232 192.158 328.412 190.749 327.035 189.528C326.332 188.905 325.535 188.369 324.681 187.916C320.053 185.46 313.748 185.426 311.618 186.977C308.961 188.913 307.558 191.715 309.601 195.883C315.822 196.305 322.647 195.319 329.645 193.598Z" fill="#5E9659"/>
<path d="M295.732 62.183C294.668 59.952 294.408 58.557 298.536 56.588C302.664 54.618 319.971 46.646 327.493 37.581C339.304 23.347 356.207 11.535 365.183 6.34004C374.159 1.14504 379.255 -0.0699556 381.014 0.00304438C382.772 0.0760444 408.194 21.702 409.34 23.892C410.486 26.082 403.275 24.353 395.341 28.544C387.407 32.735 355.544 69.63 340.285 78.228C325.026 86.826 320.54 88.257 318.962 87.287C317.383 86.317 298.883 68.789 295.732 62.183Z" fill="#5E9659"/>
<path d="M320.602 83.4236C316.815 80.1866 302.19 65.8616 299.492 60.6466C299.7 60.5306 299.959 60.3956 300.281 60.2416L300.862 59.9656C306.296 57.3866 322.833 49.5386 330.61 40.1656C341.378 27.1896 357.057 15.7216 367.212 9.84363C374.69 5.51563 378.71 4.41662 380.189 4.14062C383.641 6.45563 395.296 16.2026 401.752 22.0316C399.321 22.5386 396.43 23.3856 393.449 24.9606C389.691 26.9446 383.286 33.2706 372.287 44.2786C360.813 55.7636 346.533 70.0566 338.296 74.6976C326.519 81.3356 322.189 83.0726 320.602 83.4236Z" fill="#ABD6A7"/>
<path d="M322.505 60.1333C322.957 59.0583 325.101 57.7853 327.097 57.8543C327.465 57.8673 327.829 57.9252 328.175 58.0392C330.4 58.7702 330.956 61.5463 330.626 63.0683C330.349 64.3473 328.542 66.1292 326.25 65.7462C325.816 65.6732 325.364 65.5233 324.902 65.2773C322.003 63.7323 321.783 61.8493 322.505 60.1333Z" fill="#5E9659"/>
<path d="M298.013 60.1333C298.465 59.0583 300.609 57.7853 302.605 57.8543C302.973 57.8673 303.337 57.9252 303.683 58.0392C305.908 58.7702 306.464 61.5463 306.134 63.0683C305.857 64.3473 304.05 66.1292 301.758 65.7462C301.324 65.6732 300.872 65.5233 300.411 65.2773C297.511 63.7323 297.291 61.8493 298.013 60.1333Z" fill="#5E9659"/>
<path d="M317.302 80.0004C317.754 78.9244 319.898 77.6524 321.894 77.7214C322.262 77.7344 322.626 77.7924 322.972 77.9064C325.197 78.6384 325.753 81.4134 325.423 82.9354C325.146 84.2144 323.339 85.9964 321.047 85.6134C320.613 85.5404 320.161 85.3904 319.699 85.1444C316.8 83.5994 316.58 81.7174 317.302 80.0004Z" fill="#5E9659"/>
<path d="M375.739 4.00832C376.191 2.93332 378.335 1.65932 380.331 1.72932C380.699 1.74232 381.063 1.80033 381.409 1.91433C383.634 2.64633 384.19 5.42133 383.86 6.94333C383.583 8.22233 381.776 10.0043 379.484 9.62132C379.05 9.54832 378.598 9.39833 378.136 9.15233C375.237 7.60833 375.017 5.72532 375.739 4.00832Z" fill="#5E9659"/>
<path d="M396.153 19.4536C396.605 18.3786 398.749 17.1056 400.745 17.1746C401.113 17.1876 401.477 17.2456 401.823 17.3596C404.048 18.0906 404.604 20.8666 404.274 22.3886C403.997 23.6676 402.19 25.4496 399.898 25.0666C399.464 24.9936 399.012 24.8436 398.55 24.5976C395.651 23.0526 395.431 21.1706 396.153 19.4536Z" fill="#5E9659"/>
<path d="M372.059 20.1411C372.511 19.0661 374.655 17.7931 376.651 17.8621C377.019 17.8751 377.383 17.9331 377.729 18.0471C379.954 18.7781 380.51 21.5541 380.18 23.0761C379.903 24.3561 378.096 26.1371 375.804 25.7541C375.37 25.6811 374.918 25.5311 374.457 25.2851C371.557 23.7401 371.337 21.8571 372.059 20.1411Z" fill="#5E9659"/>
<path d="M339.336 35.2396C340.715 31.9596 347.253 28.0776 353.34 28.2896C354.463 28.3286 355.571 28.5076 356.628 28.8546C363.414 31.0856 365.108 39.5506 364.102 44.1926C363.256 48.0946 357.745 53.5286 350.757 52.3596C349.433 52.1386 348.056 51.6796 346.648 50.9296C337.805 46.2166 337.134 40.4746 339.336 35.2396Z" fill="#5E9659"/>
<path d="M355.62 35.5236C355.741 35.7196 355.689 35.9776 355.508 36.1196C355.159 36.3936 354.769 36.7026 354.339 37.0466L353.137 37.9896C352.971 38.1196 352.745 38.1086 352.572 37.9876C352.317 37.8106 352.037 37.7916 351.732 37.9316C351.146 38.1996 350.703 38.6416 350.403 39.2566C350.202 39.7016 350.24 40.0256 350.516 40.2286C350.693 40.3636 351.05 40.3086 351.589 40.0616C351.906 39.9166 352.357 39.6706 352.943 39.3226C353.528 38.9756 353.98 38.7286 354.297 38.5836C355.865 37.8666 356.993 37.7946 357.682 38.3666C358.474 39.0276 358.523 40.1416 357.829 41.7076C357.758 41.8686 357.778 42.0606 357.891 42.1956C358.17 42.5306 358.45 42.8576 358.73 43.1766L359.442 43.9386C359.655 44.1666 359.647 44.5216 359.425 44.7406L358.682 45.4726C358.287 45.8616 357.642 45.8276 357.29 45.3996L356.578 44.5356C356.408 44.3296 356.093 44.3056 355.906 44.4966C355.803 44.6016 355.699 44.7016 355.593 44.7956C355.408 44.9606 355.398 45.2476 355.555 45.4386L355.917 45.8776C355.925 45.8866 355.932 45.8956 355.94 45.9046C356.077 46.0516 356.217 46.1966 356.361 46.3396C356.543 46.5216 356.546 46.8146 356.363 46.9946L355.685 47.6616C355.219 48.1206 354.46 48.0806 354.044 47.5756L353.311 46.6856C353.182 46.5286 352.967 46.4806 352.779 46.5576C352.222 46.7876 351.644 46.9636 351.046 47.0836C350.766 47.1396 350.506 46.9186 350.509 46.6326C350.515 46.0746 350.54 45.3646 350.584 44.5036C350.596 44.2806 350.769 44.1026 350.99 44.0706C351.502 43.9966 351.987 43.8556 352.444 43.6466C352.713 43.5236 352.965 43.3796 353.201 43.2146C353.637 42.9246 354.018 42.6186 354.344 42.2996C354.828 41.8286 354.991 41.4976 354.835 41.3076C354.665 41.1016 354.255 41.1466 353.606 41.4436C353.178 41.6396 352.58 41.9786 351.811 42.4606C351.042 42.9426 350.436 43.2856 349.992 43.4886C348.582 44.1336 347.612 44.1456 347.079 43.5246C346.457 42.8206 346.47 41.5826 347.118 39.8096C347.175 39.6546 347.148 39.4786 347.041 39.3526L345.28 37.2686C345.129 37.0896 345.137 36.8246 345.298 36.6556L346.614 35.2766C346.811 35.0696 347.144 35.0886 347.313 35.3196C347.588 35.6956 347.878 36.0836 348.181 36.4846C348.364 36.7276 348.729 36.7306 348.913 36.4886C348.966 36.4186 349.02 36.3486 349.076 36.2776C349.21 36.1066 349.211 35.8666 349.073 35.6986L348.161 34.5906C348.009 34.4056 348.024 34.1346 348.197 33.9676L349.296 32.9116C349.705 32.5186 350.369 32.5886 350.688 33.0576L351.21 33.8266C351.33 34.0046 351.561 34.0866 351.758 34.0016C352.404 33.7226 353.06 33.6656 353.726 33.8286C354.216 33.9576 354.682 34.2896 355.124 34.8276C355.294 35.0296 355.458 35.2616 355.62 35.5236Z" fill="#ABD6A7"/>
<path d="M251.525 345.331C250.941 350.614 260.569 356.015 273.031 357.393C285.493 358.771 296.069 355.606 296.654 350.322C297.238 345.038 287.61 339.638 275.148 338.26C262.686 336.882 252.109 340.047 251.525 345.331Z" fill="#330C10"/>
<path d="M255.924 337.087C258.055 335.196 266.94 333.621 274.811 334.577C276.264 334.754 277.682 335.017 279.017 335.38C287.585 337.709 288.899 343.3 287.11 346.103C286.894 346.441 285.161 350.326 284.824 350.854C283.32 353.211 275.605 355.907 266.664 354.223C264.97 353.904 263.232 353.427 261.484 352.762C253.441 349.699 251.152 346.88 251.842 344.405C252.071 343.58 254.847 338.042 255.924 337.087Z" fill="#DA8A2F"/>
<path d="M255.928 337.087C258.059 335.196 266.944 333.621 274.815 334.577C276.268 334.754 277.686 335.016 279.021 335.379C287.589 337.709 288.903 343.299 287.114 346.103C285.61 348.46 277.895 351.157 268.954 349.472C267.26 349.153 265.522 348.676 263.774 348.011C252.797 343.832 252.527 340.105 255.928 337.087Z" fill="#FFDEAD"/>
<path d="M284.106 344.327C283.766 343.36 282.416 340.957 277.236 339.547C276.045 339.224 274.728 338.974 273.323 338.803C270.347 338.441 266.926 338.44 263.687 338.8C259.571 339.257 257.081 340.126 256.252 340.659C256.239 340.621 256.231 340.593 256.23 340.585C256.199 340.408 256.392 339.851 257.339 339.009C257.912 338.501 260.493 337.509 264.978 337.011C268.216 336.651 271.638 336.652 274.614 337.015C276.019 337.186 277.335 337.436 278.527 337.759C283.707 339.168 285.057 341.571 285.397 342.539C285.676 343.336 285.634 344.112 285.28 344.667C285.151 344.864 284.798 345.137 284.282 345.434C284.295 345.083 284.239 344.709 284.106 344.327Z" fill="#DA8A2F"/>
<path d="M258.398 342.773C260.306 343.75 262.306 344.452 264.304 345.154C266.295 345.839 268.326 346.356 270.396 346.657C272.462 346.975 274.561 347.082 276.657 347.01C278.752 346.917 280.854 346.666 282.922 346.094C281.017 347.093 278.883 347.67 276.729 347.918C274.571 348.181 272.378 348.122 270.223 347.811C268.072 347.476 265.956 346.881 263.976 346.001C262.006 345.146 260.066 344.135 258.398 342.773Z" fill="white"/>
<path d="M284.7 348.547C284.687 349.128 284.507 349.627 284.286 350.107C284.048 350.579 283.769 351.03 283.32 351.4C283.332 350.819 283.512 350.319 283.734 349.84C283.973 349.368 284.252 348.917 284.7 348.547Z" fill="#BC6917"/>
<path d="M282.56 349.398C282.547 349.979 282.367 350.478 282.146 350.958C281.908 351.43 281.628 351.881 281.18 352.251C281.192 351.67 281.372 351.17 281.594 350.691C281.833 350.219 282.112 349.768 282.56 349.398Z" fill="#BC6917"/>
<path d="M279.953 350.227C279.937 350.904 279.748 351.511 279.518 352.101C279.271 352.684 278.98 353.249 278.516 353.743C278.531 353.065 278.719 352.458 278.951 351.869C279.199 351.287 279.49 350.722 279.953 350.227Z" fill="#BC6917"/>
<path d="M276.771 350.734C276.758 351.315 276.578 351.814 276.357 352.294C276.119 352.766 275.84 353.217 275.391 353.587C275.403 353.006 275.583 352.506 275.805 352.027C276.044 351.556 276.324 351.104 276.771 350.734Z" fill="#BC6917"/>
<path d="M274.004 350.812C273.982 351.487 273.789 352.088 273.554 352.672C273.302 353.249 273.007 353.807 272.539 354.293C272.56 353.619 272.753 353.018 272.989 352.434C273.242 351.858 273.537 351.299 274.004 350.812Z" fill="#BC6917"/>
<path d="M271.122 350.594C271.109 351.175 270.929 351.674 270.708 352.154C270.47 352.626 270.19 353.077 269.742 353.447C269.754 352.866 269.934 352.366 270.156 351.887C270.395 351.416 270.675 350.964 271.122 350.594Z" fill="#BC6917"/>
<path d="M268.685 350.172C268.672 350.753 268.492 351.252 268.271 351.732C268.033 352.204 267.753 352.655 267.305 353.025C267.317 352.444 267.497 351.944 267.719 351.465C267.958 350.993 268.238 350.542 268.685 350.172Z" fill="#BC6917"/>
<path d="M266.081 349.609C266.128 350.308 265.937 350.896 265.691 351.458C265.42 352.009 265.091 352.532 264.523 352.944C264.474 352.244 264.665 351.656 264.913 351.095C265.186 350.545 265.514 350.021 266.081 349.609Z" fill="#BC6917"/>
<path d="M263.386 348.984C263.433 349.683 263.242 350.271 262.996 350.833C262.725 351.384 262.396 351.907 261.828 352.319C261.779 351.619 261.97 351.031 262.218 350.47C262.492 349.921 262.82 349.397 263.386 348.984Z" fill="#BC6917"/>
<path d="M260.286 347.477C260.273 348.058 260.093 348.557 259.872 349.037C259.634 349.509 259.354 349.96 258.906 350.33C258.918 349.749 259.098 349.249 259.32 348.77C259.559 348.299 259.839 347.848 260.286 347.477Z" fill="#BC6917"/>
<path d="M258.153 346.328C258.14 346.909 257.96 347.408 257.739 347.888C257.501 348.36 257.221 348.811 256.773 349.181C256.785 348.6 256.965 348.1 257.187 347.621C257.426 347.149 257.705 346.698 258.153 346.328Z" fill="#BC6917"/>
<path d="M255.935 345.109C255.922 345.689 255.742 346.189 255.521 346.669C255.283 347.141 255.004 347.592 254.555 347.962C254.567 347.381 254.747 346.881 254.969 346.402C255.207 345.93 255.487 345.479 255.935 345.109Z" fill="#BC6917"/>
<path d="M254.661 344.016C254.648 344.596 254.468 345.096 254.247 345.576C254.009 346.048 253.73 346.499 253.281 346.869C253.293 346.288 253.473 345.788 253.695 345.309C253.934 344.838 254.214 344.387 254.661 344.016Z" fill="#BC6917"/>
<path d="M253.802 342.57C253.789 343.151 253.609 343.65 253.388 344.13C253.15 344.602 252.87 345.053 252.422 345.423C252.434 344.842 252.614 344.342 252.836 343.863C253.075 343.391 253.355 342.94 253.802 342.57Z" fill="#BC6917"/>
<path d="M212.321 301.497C211.834 305.899 218.893 310.291 228.088 311.308C237.283 312.325 245.131 309.581 245.618 305.179C246.105 300.777 239.046 296.384 229.851 295.368C220.656 294.351 212.808 297.095 212.321 301.497Z" fill="#330C10"/>
<path d="M215.309 294.921C216.993 293.428 224.011 292.183 230.23 292.938C231.378 293.078 232.498 293.285 233.552 293.572C240.32 295.412 241.359 299.829 239.945 302.043C239.775 302.31 238.406 305.379 238.139 305.796C236.951 307.658 230.856 309.788 223.793 308.458C222.455 308.206 221.082 307.829 219.701 307.303C213.347 304.884 211.539 302.657 212.084 300.701C212.266 300.05 214.459 295.675 215.309 294.921Z" fill="#DA8A2F"/>
<path d="M215.306 294.921C216.989 293.427 224.008 292.183 230.227 292.938C231.374 293.078 232.495 293.285 233.549 293.572C240.317 295.412 241.356 299.829 239.942 302.043C238.754 303.905 232.659 306.035 225.596 304.705C224.258 304.453 222.885 304.077 221.504 303.551C212.833 300.249 212.619 297.305 215.306 294.921Z" fill="#FFDEAD"/>
<path d="M237.57 300.641C237.302 299.877 236.235 297.979 232.143 296.865C231.202 296.61 230.162 296.412 229.052 296.277C226.701 295.991 223.998 295.99 221.44 296.274C218.189 296.635 216.221 297.321 215.566 297.743C215.556 297.713 215.55 297.691 215.549 297.685C215.525 297.545 215.677 297.105 216.425 296.44C216.878 296.038 218.916 295.255 222.459 294.861C225.017 294.577 227.72 294.577 230.071 294.864C231.181 294.999 232.221 295.196 233.162 295.452C237.254 296.565 238.321 298.464 238.589 299.228C238.81 299.858 238.776 300.471 238.497 300.909C238.395 301.064 238.116 301.28 237.709 301.514C237.719 301.238 237.675 300.942 237.57 300.641Z" fill="#DA8A2F"/>
<path d="M217.266 299.414C218.774 300.186 220.354 300.74 221.931 301.295C223.504 301.836 225.109 302.245 226.743 302.482C228.375 302.733 230.033 302.817 231.689 302.761C233.344 302.688 235.005 302.489 236.638 302.037C235.133 302.826 233.447 303.282 231.746 303.478C230.041 303.686 228.309 303.639 226.606 303.393C224.907 303.128 223.235 302.659 221.671 301.963C220.116 301.288 218.584 300.49 217.266 299.414Z" fill="white"/>
<path d="M238.043 303.977C238.042 304.44 237.872 304.821 237.716 305.209C237.509 305.572 237.316 305.943 236.953 306.23C236.953 305.767 237.124 305.386 237.28 304.998C237.487 304.635 237.681 304.265 238.043 303.977Z" fill="#BC6917"/>
<path d="M236.348 304.648C236.346 305.111 236.177 305.492 236.021 305.88C235.814 306.244 235.621 306.614 235.258 306.902C235.258 306.438 235.429 306.058 235.585 305.67C235.793 305.306 235.987 304.937 236.348 304.648Z" fill="#BC6917"/>
<path d="M234.292 305.305C234.288 305.844 234.111 306.312 233.948 306.785C233.733 307.237 233.532 307.695 233.156 308.082C233.159 307.543 233.337 307.075 233.5 306.602C233.716 306.15 233.917 305.693 234.292 305.305Z" fill="#BC6917"/>
<path d="M231.777 305.703C231.775 306.166 231.607 306.547 231.451 306.935C231.244 307.298 231.051 307.669 230.688 307.957C230.688 307.493 230.858 307.113 231.014 306.725C231.221 306.361 231.415 305.991 231.777 305.703Z" fill="#BC6917"/>
<path d="M229.593 305.766C229.585 306.302 229.404 306.765 229.238 307.234C229.019 307.681 228.815 308.135 228.438 308.515C228.445 307.979 228.625 307.516 228.792 307.047C229.011 306.599 229.216 306.146 229.593 305.766Z" fill="#BC6917"/>
<path d="M227.317 305.594C227.315 306.057 227.146 306.438 226.99 306.826C226.783 307.189 226.59 307.56 226.227 307.848C226.227 307.384 226.398 307.004 226.554 306.616C226.762 306.252 226.955 305.882 227.317 305.594Z" fill="#BC6917"/>
<path d="M225.387 305.258C225.386 305.721 225.216 306.102 225.06 306.49C224.853 306.853 224.66 307.224 224.297 307.512C224.297 307.048 224.468 306.668 224.624 306.28C224.831 305.917 225.025 305.547 225.387 305.258Z" fill="#BC6917"/>
<path d="M223.331 304.812C223.367 305.364 223.218 305.829 223.023 306.273C222.809 306.708 222.549 307.121 222.1 307.447C222.062 306.894 222.212 306.429 222.408 305.986C222.624 305.551 222.884 305.139 223.331 304.812Z" fill="#BC6917"/>
<path d="M221.205 304.32C221.241 304.872 221.092 305.337 220.897 305.781C220.683 306.216 220.423 306.629 219.975 306.955C219.937 306.402 220.087 305.937 220.283 305.494C220.498 305.059 220.759 304.646 221.205 304.32Z" fill="#BC6917"/>
<path d="M218.754 303.133C218.752 303.596 218.583 303.977 218.427 304.365C218.22 304.728 218.027 305.099 217.664 305.386C217.664 304.923 217.835 304.542 217.991 304.154C218.198 303.792 218.392 303.422 218.754 303.133Z" fill="#BC6917"/>
<path d="M217.067 302.219C217.065 302.682 216.896 303.063 216.74 303.451C216.533 303.814 216.34 304.185 215.977 304.472C215.977 304.008 216.148 303.628 216.304 303.24C216.512 302.877 216.705 302.507 217.067 302.219Z" fill="#BC6917"/>
<path d="M215.317 301.258C215.315 301.721 215.146 302.102 214.99 302.49C214.783 302.853 214.59 303.224 214.227 303.512C214.227 303.048 214.398 302.668 214.554 302.28C214.762 301.916 214.955 301.546 215.317 301.258Z" fill="#BC6917"/>
<path d="M214.309 300.391C214.308 300.854 214.138 301.235 213.982 301.623C213.775 301.986 213.582 302.357 213.219 302.644C213.219 302.181 213.39 301.8 213.546 301.412C213.754 301.049 213.947 300.679 214.309 300.391Z" fill="#BC6917"/>
<path d="M213.629 299.25C213.627 299.713 213.458 300.094 213.302 300.482C213.095 300.845 212.902 301.216 212.539 301.504C212.539 301.04 212.71 300.66 212.866 300.272C213.073 299.909 213.267 299.539 213.629 299.25Z" fill="#BC6917"/>
<path d="M168.49 328.694C168.003 333.096 175.801 337.57 185.906 338.688C196.012 339.806 204.599 337.143 205.085 332.742C205.572 328.34 197.774 323.866 187.669 322.748C177.564 321.629 168.977 324.292 168.49 328.694Z" fill="#330C10"/>
<path d="M171.981 321.585C173.665 320.092 180.683 318.847 186.902 319.603C188.05 319.742 189.17 319.95 190.224 320.237C196.992 322.077 198.031 326.494 196.617 328.708C196.447 328.975 195.078 332.044 194.811 332.461C193.623 334.323 187.528 336.453 180.465 335.123C179.127 334.871 177.754 334.494 176.373 333.969C170.019 331.55 168.211 329.323 168.756 327.367C168.937 326.715 171.13 322.34 171.981 321.585Z" fill="#DA8A2F"/>
<path d="M171.978 321.585C173.661 320.091 180.68 318.847 186.899 319.602C188.047 319.741 189.167 319.949 190.221 320.236C196.99 322.077 198.028 326.493 196.614 328.708C195.426 330.57 189.331 332.7 182.268 331.37C180.93 331.118 179.557 330.742 178.176 330.216C169.505 326.913 169.291 323.969 171.978 321.585Z" fill="#FFDEAD"/>
<path d="M194.242 327.306C193.973 326.542 192.907 324.644 188.815 323.53C187.874 323.275 186.834 323.077 185.724 322.942C183.373 322.656 180.67 322.655 178.112 322.939C174.861 323.3 172.893 323.986 172.238 324.408C172.228 324.378 172.222 324.356 172.221 324.349C172.197 324.209 172.349 323.769 173.097 323.104C173.55 322.702 175.588 321.919 179.132 321.525C181.69 321.241 184.393 321.241 186.744 321.528C187.854 321.663 188.894 321.861 189.835 322.116C193.927 323.23 194.994 325.128 195.262 325.892C195.483 326.522 195.449 327.135 195.17 327.573C195.068 327.729 194.789 327.944 194.382 328.178C194.392 327.903 194.348 327.607 194.242 327.306Z" fill="#DA8A2F"/>
<path d="M173.93 326.078C175.438 326.85 177.017 327.404 178.595 327.959C180.167 328.5 181.773 328.909 183.407 329.146C185.039 329.397 186.697 329.482 188.353 329.425C190.008 329.352 191.669 329.153 193.302 328.701C191.797 329.49 190.112 329.946 188.41 330.142C186.705 330.35 184.973 330.303 183.27 330.057C181.571 329.792 179.899 329.323 178.335 328.627C176.781 327.952 175.249 327.154 173.93 326.078Z" fill="white"/>
<path d="M194.715 330.641C194.714 331.104 194.544 331.485 194.388 331.873C194.181 332.236 193.988 332.607 193.625 332.895C193.625 332.431 193.796 332.051 193.952 331.663C194.16 331.299 194.353 330.929 194.715 330.641Z" fill="#BC6917"/>
<path d="M193.02 331.312C193.018 331.775 192.849 332.156 192.693 332.544C192.486 332.907 192.293 333.278 191.93 333.566C191.93 333.102 192.101 332.723 192.257 332.335C192.465 331.972 192.658 331.602 193.02 331.312Z" fill="#BC6917"/>
<path d="M190.964 331.969C190.96 332.508 190.783 332.975 190.62 333.449C190.405 333.901 190.204 334.36 189.828 334.746C189.831 334.207 190.009 333.739 190.172 333.266C190.388 332.814 190.59 332.356 190.964 331.969Z" fill="#BC6917"/>
<path d="M188.449 332.367C188.448 332.83 188.278 333.211 188.122 333.599C187.915 333.962 187.722 334.333 187.359 334.62C187.359 334.157 187.53 333.776 187.686 333.388C187.893 333.025 188.087 332.655 188.449 332.367Z" fill="#BC6917"/>
<path d="M186.259 332.43C186.251 332.966 186.07 333.429 185.903 333.898C185.684 334.345 185.48 334.799 185.102 335.178C185.109 334.642 185.29 334.179 185.457 333.71C185.676 333.263 185.882 332.81 186.259 332.43Z" fill="#BC6917"/>
<path d="M183.988 332.258C183.986 332.721 183.817 333.102 183.661 333.49C183.454 333.853 183.261 334.224 182.898 334.512C182.898 334.048 183.069 333.668 183.225 333.28C183.432 332.916 183.626 332.546 183.988 332.258Z" fill="#BC6917"/>
<path d="M182.059 331.922C182.058 332.385 181.888 332.766 181.732 333.154C181.525 333.517 181.332 333.888 180.969 334.175C180.969 333.711 181.14 333.331 181.296 332.943C181.503 332.581 181.697 332.211 182.059 331.922Z" fill="#BC6917"/>
<path d="M180.003 331.477C180.039 332.029 179.89 332.494 179.695 332.938C179.481 333.373 179.221 333.786 178.772 334.112C178.734 333.559 178.884 333.094 179.08 332.651C179.295 332.216 179.556 331.803 180.003 331.477Z" fill="#BC6917"/>
<path d="M177.878 330.984C177.914 331.536 177.765 332.001 177.57 332.445C177.356 332.88 177.096 333.293 176.647 333.619C176.609 333.066 176.759 332.601 176.955 332.158C177.171 331.723 177.431 331.31 177.878 330.984Z" fill="#BC6917"/>
<path d="M175.426 329.797C175.425 330.26 175.255 330.641 175.099 331.029C174.892 331.392 174.699 331.763 174.336 332.051C174.336 331.588 174.507 331.207 174.663 330.819C174.871 330.456 175.065 330.086 175.426 329.797Z" fill="#BC6917"/>
<path d="M173.738 328.883C173.737 329.346 173.567 329.727 173.411 330.115C173.204 330.478 173.011 330.849 172.648 331.136C172.648 330.673 172.819 330.292 172.975 329.904C173.183 329.541 173.376 329.171 173.738 328.883Z" fill="#BC6917"/>
<path d="M171.988 327.922C171.987 328.385 171.817 328.766 171.661 329.154C171.454 329.517 171.261 329.888 170.898 330.175C170.898 329.712 171.069 329.331 171.225 328.943C171.432 328.58 171.626 328.21 171.988 327.922Z" fill="#BC6917"/>
<path d="M170.981 327.062C170.98 327.525 170.81 327.906 170.654 328.294C170.447 328.657 170.254 329.028 169.891 329.316C169.891 328.852 170.062 328.473 170.218 328.085C170.426 327.721 170.619 327.35 170.981 327.062Z" fill="#BC6917"/>
<path d="M170.301 325.914C170.3 326.377 170.13 326.758 169.974 327.146C169.767 327.509 169.574 327.88 169.211 328.168C169.211 327.704 169.382 327.324 169.538 326.936C169.745 326.573 169.939 326.203 170.301 325.914Z" fill="#BC6917"/>
</svg>
