<svg width="297" height="381" viewBox="0 0 297 381" fill="none" xmlns="http://www.w3.org/2000/svg">
<path d="M67.2319 53.9141H67.213C67.213 53.9141 67.2159 61.5101 60.2109 63.8411C60.2109 63.8411 67.2319 70.4121 67.2219 76.9831C67.2119 70.4121 74.2329 63.8411 74.2329 63.8411C67.2289 61.5101 67.2319 53.9141 67.2319 53.9141Z" fill="#203737"/>
<path d="M60.0757 78.25H60.0647C60.0647 78.25 60.0667 82.15 56.1797 83.346C56.1797 83.346 60.0757 86.72 60.0697 90.093C60.0647 86.719 63.9597 83.346 63.9597 83.346C60.0737 82.15 60.0757 78.25 60.0757 78.25Z" fill="#203737"/>
<path d="M159.766 92.5H181.327L211.245 127.218C211.245 127.218 205.258 148.317 198.704 151.184C192.149 154.052 162.627 149.722 162.627 149.722L138.102 134.504L159.766 92.5Z" fill="#201D1E"/>
<path d="M137.299 1.54783C137.299 1.54783 121.322 0.00483322 114.085 21.4618C111.447 29.2828 105.069 33.1528 98.9006 37.7598C91.8676 43.0128 82.7226 50.1498 87.1856 64.4438C94.5016 87.8728 89.0576 89.3678 83.8936 95.7708C78.4526 102.517 72.0116 125.548 80.9346 136.649L138.102 134.513L140.76 20.6318L137.299 1.54783Z" fill="#201D1E"/>
<path d="M175.946 129.002C173.789 128.805 164.896 125.5 164.503 125.043C160.377 120.241 159.764 92.5047 159.764 92.5047L147.207 90.3597V90.0547L146.634 90.1887L146.061 90.0547V90.3597L133.504 92.5047C133.504 92.5047 132.891 118.393 128.765 123.195C128.372 123.652 119.48 128.806 117.323 129.002C110.241 129.647 128.468 158.979 146.442 160.982V161.035C146.506 161.029 146.57 161.015 146.634 161.009C146.698 161.015 146.762 161.029 146.826 161.035V160.982C164.801 158.98 183.028 129.647 175.946 129.002Z" fill="#E7AA9E"/>
<path d="M159.769 92.5047L147.212 90.3597V90.0547L146.639 90.1887L146.066 90.0547V90.3597L133.509 92.5047C133.509 92.5047 133.048 101.948 132.125 111.059C136.615 114.741 147.964 121.903 163.128 122.29C160.684 112.515 159.769 92.5047 159.769 92.5047Z" fill="#D68B85"/>
<path d="M112.371 66.8248C112.371 66.8248 103.568 65.7848 102.208 72.4268C100.847 79.0688 103.488 92.3528 122.854 86.3508C142.22 80.3498 112.371 66.8248 112.371 66.8248Z" fill="#D68B85"/>
<path d="M174.963 66.8248C174.963 66.8248 183.766 65.7848 185.126 72.4268C186.486 79.0688 183.846 92.3528 164.48 86.3508C145.114 80.3498 174.963 66.8248 174.963 66.8248Z" fill="url(#paint0_linear_4057_10309)"/>
<path d="M181.522 45.5374C178.243 30.0124 162.949 29.1104 155.293 31.7734C150.072 33.5894 146.742 33.7904 145.224 33.7564C145.214 33.7564 145.2 33.7564 145.189 33.7564C145.179 33.7564 145.164 33.7564 145.154 33.7564C143.636 33.7904 140.306 33.5894 135.085 31.7734C127.43 29.1104 116.043 29.3194 112.765 44.8444C109.486 60.3694 108.479 74.0674 118.202 95.3504C123.737 107.466 137.182 115.585 145.154 115.579V115.585C145.164 115.585 145.178 115.582 145.189 115.582C145.2 115.582 145.213 115.585 145.224 115.585V115.579C153.945 115.585 166.641 107.466 172.176 95.3504C181.9 74.0674 184.8 61.0634 181.522 45.5374Z" fill="#E7AA9E"/>
<path d="M171.683 96.3603C181.124 75.0773 183.253 61.0613 180.07 45.5363C176.886 30.0113 162.035 29.1093 154.601 31.7723C149.531 33.5883 146.298 33.7893 144.824 33.7553C144.814 33.7553 144.8 33.7553 144.79 33.7553C144.78 33.7553 144.766 33.7553 144.756 33.7553C143.282 33.7893 140.049 33.5883 134.979 31.7723C129.29 29.7343 121.061 29.2593 116.281 36.1653C117.593 43.3383 122.804 51.3493 137.053 53.0703C160.577 55.9133 180.165 55.4593 174.323 71.0373C170.543 81.1173 162.809 93.9973 163.288 107.278C166.867 104.253 169.878 100.428 171.683 96.3603Z" fill="#D68B85"/>
<path d="M129.973 70.7495C129.973 73.2685 128.421 75.3105 126.506 75.3105C124.591 75.3105 123.039 73.2685 123.039 70.7495C123.039 68.2305 124.591 66.1875 126.506 66.1875C128.42 66.1875 129.973 68.2305 129.973 70.7495Z" fill="#282526"/>
<path d="M120.763 61.8591C120.763 61.8591 119.882 59.0271 124.853 56.8801C128.827 55.1641 130.812 57.9412 130.134 58.5522C129.457 59.1632 125.436 56.8541 121.849 62.5301C121.849 62.5301 121.318 63.5311 120.763 61.8591Z" fill="#282526"/>
<path d="M161.094 70.7495C161.094 73.2685 162.646 75.3105 164.561 75.3105C166.476 75.3105 168.028 73.2685 168.028 70.7495C168.028 68.2305 166.476 66.1875 164.561 66.1875C162.647 66.1875 161.094 68.2305 161.094 70.7495Z" fill="#282526"/>
<path d="M170.86 60.6587C170.86 60.6587 170.97 57.6947 165.61 56.9227C161.326 56.3047 160.136 59.5047 160.95 59.9177C161.764 60.3307 165.04 57.0507 169.987 61.5907C169.987 61.5907 170.761 62.4167 170.86 60.6587Z" fill="#282526"/>
<path d="M140.299 70.8661C142.201 62.9065 137.29 54.9123 129.331 53.0104C121.371 51.1085 113.377 56.0191 111.475 63.9786C109.573 71.9382 114.484 79.9324 122.443 81.8343C130.403 83.7362 138.397 78.8256 140.299 70.8661Z" stroke="#321D1A" stroke-width="2" stroke-miterlimit="10"/>
<path d="M179.401 70.1516C181.269 62.1839 176.324 54.2102 168.357 52.3418C160.389 50.4735 152.415 55.418 150.547 63.3857C148.679 71.3534 153.623 79.3271 161.591 81.1954C169.559 83.0638 177.532 78.1193 179.401 70.1516Z" stroke="#321D1A" stroke-width="2" stroke-miterlimit="10"/>
<path d="M140.711 67.4214C140.711 67.4214 146.115 60.5134 150.154 66.7694" stroke="#321D1A" stroke-width="2" stroke-miterlimit="10"/>
<path d="M118.698 19.3831C118.698 19.3831 111.02 45.5381 138.49 48.8571C162.014 51.7001 181.602 51.2461 175.76 66.8241C169.918 82.4021 157.461 107.163 170.858 125.544L211.243 127.222C211.243 127.222 223.072 93.7991 200.759 75.3061C188.347 65.0191 198.698 48.5921 198.164 35.2611C197.541 19.6941 185.959 11.1971 171.172 13.5701C160.18 15.3341 153.849 -1.27094 140.758 0.0780642C120.434 2.17406 118.698 19.3831 118.698 19.3831Z" fill="#201D1E"/>
<path d="M153.585 92.7031C153.585 92.7031 152.575 90.8741 150.647 91.9131C148.719 92.9521 146.882 94.1581 144.954 93.3261C143.026 92.4951 140.271 91.7191 138.481 93.6031C136.691 95.4871 138.527 99.1041 143.118 100.309C147.709 101.515 152.222 98.9841 153.356 96.5681C154.526 94.0751 153.585 92.7031 153.585 92.7031Z" fill="#F9F9F9"/>
<path d="M144.842 73.4531C144.842 73.4531 146.338 75.7811 145.632 78.4001C144.925 81.0191 143.013 82.1831 143.096 83.6791C143.179 85.1751 144.218 86.7551 146.172 87.1291" stroke="#201D1E" stroke-miterlimit="10" stroke-linecap="round" stroke-linejoin="round"/>
<path d="M43.3891 195.273C43.3891 195.273 26.9931 232.462 21.2461 262.445C19.1671 273.294 29.4361 319.327 30.1261 325.897C30.8161 332.466 41.2991 312.274 41.2991 312.274L77.7371 229.026L48.0271 196.987L43.3891 195.273Z" fill="#E7AA9E"/>
<path d="M257.486 191.398C257.486 191.398 266.225 248.841 269.168 279.21C270.233 290.199 257.276 320.801 256.013 327.284C254.75 333.767 246.298 312.734 246.298 312.734L218.086 226.619L250.021 197.318L257.486 191.398Z" fill="#E7AA9E"/>
<path d="M250.738 178.125C247.831 172.84 243.765 167.313 239.273 161.235C234.781 155.158 229.496 150.401 221.305 142.474C213.114 134.547 200.694 131.64 196.731 130.848C192.767 130.055 173.739 129 173.739 129C173.978 149.804 149.062 157.062 145.034 157.538C141.006 157.062 117.088 149.805 117.327 129C117.327 129 97.4356 130.481 93.4106 130.848C90.2276 131.138 77.2856 134.381 68.8366 142.474C60.6046 150.359 55.3606 155.157 50.8686 161.235C46.3766 167.312 39.6076 173.557 36.7016 178.842C33.7946 184.127 27.3516 196.041 27.3516 196.041C27.3516 196.041 55.3606 218.575 60.6456 219.632C65.9306 220.689 66.7226 219.632 71.2156 216.99C75.7076 214.348 75.7076 214.348 75.7076 214.348L73.7256 260.061H133.579H156.565H216.418L214.436 214.348C214.436 214.348 214.436 214.348 218.928 216.99C223.42 219.632 224.213 220.689 229.498 219.632C234.783 218.575 262.792 196.041 262.792 196.041C262.792 196.041 253.645 183.409 250.738 178.125Z" fill="#7CFFE9"/>
<path d="M146.638 200.963C146.638 200.963 111.137 185.6 107.757 175.665C104.377 165.73 124.756 185.002 134.077 185.966C143.399 186.931 127.576 175.767 131.698 175.767C135.82 175.767 151.285 191.027 163.473 192.257C175.661 193.486 194.301 191.847 194.301 191.847C194.301 191.847 197.604 211.307 146.638 200.963Z" fill="#00C0AA"/>
<path d="M148.347 161.11C148.347 161.11 178.744 158.136 179.526 129.346C176.12 128.906 173.737 128.998 173.737 128.998C173.976 149.802 149.06 157.06 145.032 157.536C141.004 157.06 117.086 149.803 117.325 128.998C117.484 128.785 115.723 128.971 112.719 129.258C112.966 137.616 116.821 159.316 148.347 161.11Z" fill="#5DD9C3"/>
<path d="M214.424 217.604C214.424 217.604 202.748 187.743 204.745 184.545C206.742 181.347 208.371 191.421 211.244 195.832C214.117 200.243 215.508 176.277 217.962 174.587C220.416 172.897 213.756 205.404 217.086 200.826C220.416 196.248 228.976 185.611 225.848 194.463C222.72 203.315 219.174 223.639 219.069 224.104C218.965 224.569 212.734 216.22 212.734 216.22" fill="#00C0AA"/>
<path d="M52.2604 217.604C52.2604 217.604 40.5844 187.743 42.5814 184.545C44.5784 181.347 46.2074 191.421 49.0804 195.832C51.9534 200.243 53.3444 176.277 55.7984 174.587C58.2524 172.897 51.5924 205.404 54.9224 200.826C58.2524 196.248 66.8124 185.611 63.6844 194.463C60.5564 203.315 57.0104 223.639 56.9054 224.104C56.8014 224.569 50.5704 216.22 50.5704 216.22" fill="#00C0AA"/>
<path d="M90.7318 131.189C90.7318 131.189 92.3598 170.272 91.6248 177.272C90.8898 184.272 86.8958 256.43 87.8168 256.454C88.7388 256.478 210.152 256.454 210.152 256.454L199.044 130.497C199.044 130.497 192.172 129.472 190.712 130.087C189.252 130.702 191.157 195.838 191.157 195.838C191.157 195.838 110.553 197.945 105.944 198.252C101.335 198.559 101.414 133.141 99.4918 129.917C99.4938 129.917 93.2618 130.094 90.7318 131.189Z" fill="#A34F1C"/>
<path d="M108.979 255.979C108.979 255.979 97.6036 223.861 102.018 224.124C106.433 224.387 118.002 246.535 118.002 246.535C118.002 246.535 134.909 218.585 146.12 218.376C157.331 218.167 133.285 245.563 133.285 245.563C133.285 245.563 184.432 211.613 186.244 228.409C188.057 245.205 146.12 257.873 146.12 257.873L108.979 255.979Z" fill="#5676E7"/>
<path d="M181.085 198.75C181.085 198.75 153.784 218.348 153.915 220.686C154.046 223.024 192.761 200.286 181.085 198.75Z" fill="#82380F"/>
<path d="M33.2031 240.428L133.675 228.414L256.861 245.222L226.859 269.018L128.667 250.04L33.2031 240.428Z" fill="#D69B3E"/>
<path d="M56.5511 251.609C69.9291 251.609 80.7741 240.143 80.7741 226C80.7741 211.856 69.9291 200.391 56.5511 200.391C43.1731 200.391 32.3281 211.856 32.3281 226C32.3281 240.143 43.1731 251.609 56.5511 251.609Z" fill="#F5DA69"/>
<path d="M56.5513 246.064C67.0342 246.064 75.5323 237.079 75.5323 225.997C75.5323 214.914 67.0342 205.93 56.5513 205.93C46.0684 205.93 37.5703 214.914 37.5703 225.997C37.5703 237.079 46.0684 246.064 56.5513 246.064Z" fill="#EDB664"/>
<path d="M62.2673 233.918L63.5303 236.415L61.8013 237.392L60.5503 234.918C58.4163 235.952 56.0523 236.371 54.4483 235.987L54.2583 233.199C55.7423 233.507 57.6503 233.259 59.3323 232.51L57.0773 228.052C54.4323 228.773 51.5173 229.389 49.9503 226.29C48.8003 224.016 49.3573 221.15 52.4783 218.957L51.2043 216.438L52.9333 215.461L54.1843 217.936C55.7893 217.143 57.6193 216.74 59.1523 216.877L59.4263 219.617C57.9593 219.557 56.5863 219.846 55.4023 220.344L57.6793 224.847C60.3243 224.126 63.2703 223.464 64.8373 226.563C65.9863 228.835 65.3963 231.691 62.2673 233.918ZM55.7133 225.354L53.7063 221.386C52.3333 222.478 52.1063 223.638 52.6023 224.619C53.1433 225.689 54.2983 225.666 55.7133 225.354ZM62.2393 228.287C61.6873 227.195 60.5003 227.206 59.0433 227.542L61.0383 231.488C62.4533 230.373 62.7243 229.246 62.2393 228.287Z" fill="#DDA040"/>
<path d="M61.5866 233.418L62.8496 235.915L61.1206 236.892L59.8696 234.417C57.7356 235.451 55.3716 235.87 53.7676 235.487L53.5776 232.699C55.0616 233.007 56.9696 232.759 58.6516 232.01L56.3976 227.552C53.7526 228.273 50.8376 228.889 49.2706 225.79C48.1206 223.516 48.6776 220.65 51.7986 218.457L50.5246 215.938L52.2536 214.961L53.5046 217.435C55.1106 216.642 56.9396 216.239 58.4726 216.376L58.7456 219.116C57.2786 219.056 55.9066 219.345 54.7216 219.843L56.9986 224.346C59.6436 223.625 62.5896 222.963 64.1566 226.062C65.3066 228.335 64.7166 231.191 61.5866 233.418ZM55.0326 224.854L53.0266 220.886C51.6536 221.978 51.4266 223.138 51.9226 224.119C52.4636 225.189 53.6176 225.166 55.0326 224.854ZM61.5586 227.787C61.0066 226.695 59.8196 226.706 58.3626 227.042L60.3576 230.988C61.7726 229.873 62.0436 228.746 61.5586 227.787Z" fill="#F5DA69"/>
<path d="M148.348 268.424L101.418 295.225L46.5859 187.91L93.5159 161.109L148.348 268.424Z" fill="#76BD84"/>
<path d="M84.147 172.438L60.678 185.839C62.983 190.35 61.392 195.984 57.125 198.421L98.88 280.142C103.147 277.705 108.475 279.386 110.78 283.897L134.248 270.495C131.943 265.984 133.534 260.351 137.801 257.914L96.046 176.193C91.78 178.63 86.452 176.949 84.147 172.438Z" fill="#9ADBA5"/>
<path d="M97.4688 246.537C107.065 246.537 114.844 238.312 114.844 228.167C114.844 218.021 107.065 209.797 97.4688 209.797C87.8728 209.797 80.0938 218.021 80.0938 228.167C80.0938 238.312 87.8728 246.537 97.4688 246.537Z" fill="#76BD84"/>
<path d="M105.097 221.956L107.713 220.462L108.975 222.932L106.429 224.386C107.538 226.911 108.012 229.669 107.702 231.601L104.158 231.87C104.391 230.142 104.114 228.004 103.369 226.133L99.4688 228.36C100.239 231.461 100.939 235.016 97.5988 236.924C95.1228 238.338 92.0258 237.65 89.6128 233.99L87.0198 235.471L85.7578 233.001L88.3038 231.547C87.4978 229.615 87.0438 227.545 87.1678 225.721L90.6718 225.315C90.6378 226.961 90.8968 228.472 91.3878 229.787L95.3588 227.519C94.5658 224.431 93.8908 220.925 97.1838 219.045C99.6108 217.657 102.672 218.333 105.097 221.956ZM96.0348 230.321L92.7178 232.215C93.6668 233.363 94.6088 233.495 95.3798 233.055C96.1978 232.589 96.2628 231.594 96.0348 230.321ZM99.4928 222.859C98.6758 223.326 98.5978 224.295 98.7898 225.558L102.013 223.717C101.126 222.629 100.241 222.432 99.4928 222.859Z" fill="#9ADBA5"/>
<path d="M217.022 302.224L176.867 270.457L241.86 178.633L282.015 210.401L217.022 302.224Z" fill="#76BD84"/>
<path d="M269.178 206.417L249.097 190.531C246.365 194.391 241.19 195.179 237.539 192.29L188.047 262.214C191.698 265.102 192.443 270.573 189.711 274.433L209.792 290.319C212.524 286.459 217.699 285.671 221.35 288.56L270.843 218.636C267.191 215.747 266.446 210.277 269.178 206.417Z" fill="#9ADBA5"/>
<path d="M229.44 257.7C238.463 257.7 245.778 249.967 245.778 240.428C245.778 230.889 238.463 223.156 229.44 223.156C220.416 223.156 213.102 230.889 213.102 240.428C213.102 249.967 220.416 257.7 229.44 257.7Z" fill="#76BD84"/>
<path d="M237.463 244.865L239.702 246.636L238.206 248.749L236.028 247.025C234.427 249.022 232.388 250.539 230.706 251.021L229.091 247.93C230.578 247.459 232.195 246.364 233.411 244.954L230.074 242.314C227.874 244.232 225.281 246.267 222.423 244.006C220.304 242.33 219.638 239.264 221.64 235.642L219.422 233.887L220.918 231.774L223.096 233.497C224.338 232.007 225.829 230.781 227.351 230.172L229.062 233.173C227.72 233.792 226.602 234.622 225.735 235.584L229.133 238.272C231.313 236.338 233.876 234.345 236.694 236.574C238.769 238.219 239.431 241.248 237.463 244.865ZM227.134 239.99L224.296 237.745C223.744 239.054 224.009 239.957 224.669 240.478C225.368 241.032 226.196 240.698 227.134 239.99ZM234.523 240.166C233.824 239.613 233.01 239.925 232.067 240.597L234.825 242.779C235.353 241.548 235.162 240.672 234.523 240.166Z" fill="#9ADBA5"/>
<path d="M128.667 379.338L33.2031 361.055V240.43L128.667 250.042V379.338Z" fill="#F2CB77"/>
<path d="M128.664 250.037L256.858 245.219V366.808L128.664 379.333V250.037Z" fill="#E1A860"/>
<path d="M232.133 141.64C232.133 141.64 238.886 139.88 244.416 136.403C248.659 133.735 251.818 129.964 252.867 125.751C254.175 120.495 252.337 116.366 248.728 114.421C245.673 112.775 240.294 113.379 238.445 115.677L237.686 116.484L237.433 115.425C236.748 112.496 232.188 109.419 228.759 109.453C224.708 109.492 221.321 112.321 220.275 117.642C219.436 121.908 220.674 126.772 223.346 131.161C226.831 136.881 232.133 141.64 232.133 141.64Z" fill="#FF6E65"/>
<path d="M204.79 265.396C204.79 265.396 213.636 253.373 218.409 240.213C222.071 230.116 222.632 219.698 219.223 211.423C214.971 201.1 206.969 196.879 198.739 198.613C191.772 200.08 183.758 208.361 183.541 214.607L183.286 216.949L181.589 215.57C176.919 211.737 165.769 212.919 160.233 217.625C153.693 223.185 151.619 232.381 156.377 242.454C160.191 250.529 168.108 256.761 177.782 260.273C190.392 264.85 204.79 265.396 204.79 265.396Z" fill="#FF6E65"/>
<path d="M134.934 257.874C148.312 257.874 159.157 246.409 159.157 232.265C159.157 218.122 148.312 206.656 134.934 206.656C121.556 206.656 110.711 218.122 110.711 232.265C110.711 246.409 121.556 257.874 134.934 257.874Z" fill="#F5DA69"/>
<path d="M134.934 252.329C145.417 252.329 153.915 243.345 153.915 232.262C153.915 221.18 145.417 212.195 134.934 212.195C124.451 212.195 115.953 221.18 115.953 232.262C115.953 243.345 124.451 252.329 134.934 252.329Z" fill="#EDB664"/>
<path d="M136.444 242.096V244.927H134.483V242.121C132.14 241.969 129.868 241.16 128.625 240.023L129.701 237.47C130.873 238.481 132.666 239.214 134.483 239.391V234.335C131.829 233.653 128.983 232.742 128.983 229.228C128.983 226.65 130.752 224.4 134.483 224.021V221.164H136.444V223.97C138.213 224.071 140.006 224.628 141.298 225.512L140.317 228.065C139.05 227.281 137.711 226.851 136.444 226.7V231.806C139.098 232.488 141.991 233.373 141.991 236.887C141.991 239.467 140.197 241.692 136.444 242.096ZM134.483 231.277V226.777C132.785 227.055 132.068 227.965 132.068 229.077C132.068 230.291 133.096 230.847 134.483 231.277ZM138.931 237.116C138.931 235.877 137.879 235.296 136.444 234.866V239.34C138.189 239.063 138.931 238.203 138.931 237.116Z" fill="#DDA040"/>
<path d="M136.069 241.315V244.146H134.108V241.34C131.765 241.188 129.493 240.379 128.25 239.242L129.326 236.689C130.498 237.7 132.291 238.433 134.108 238.61V233.554C131.454 232.872 128.608 231.961 128.608 228.447C128.608 225.869 130.377 223.619 134.108 223.24V220.383H136.069V223.189C137.838 223.29 139.631 223.847 140.923 224.731L139.942 227.284C138.675 226.5 137.336 226.07 136.069 225.919V231.025C138.723 231.707 141.616 232.592 141.616 236.106C141.616 238.686 139.822 240.911 136.069 241.315ZM134.108 230.496V225.996C132.41 226.274 131.693 227.184 131.693 228.296C131.693 229.51 132.721 230.066 134.108 230.496ZM138.556 236.335C138.556 235.096 137.504 234.515 136.069 234.085V238.559C137.814 238.282 138.556 237.422 138.556 236.335Z" fill="#F5DA69"/>
<path d="M256.936 285.389L256.858 263.895L250.105 245.477L128.664 250.041L128.996 258.475L136.318 301.785L256.936 285.389Z" fill="#C48A43"/>
<path d="M128.254 251.351L103.816 299.542L33.2031 288.328V282.561L102.604 282.24L128.667 250.039" fill="#C48A43"/>
<path d="M286.44 344.73C286.44 344.73 276.175 354.921 263.767 355.795C251.359 356.67 261.253 336.281 261.253 336.281L286.44 344.73Z" fill="#5DCDBE"/>
<path d="M0.65625 342.156C0.65625 342.156 23.9122 353.306 27.8092 352.518C31.7072 351.731 25.1852 330.852 25.1852 330.852L0.65625 342.156Z" fill="#5DCDBE"/>
<path d="M128.664 250.037L143.862 292.811L274.069 285.191L256.858 245.219L128.664 250.037Z" fill="#F2CB77"/>
<path d="M148.635 317.765C161.768 313.279 233.088 307.065 239.351 309.862C245.614 312.659 242.579 340.516 242.175 347.778C241.771 355.04 159.545 364.543 150.453 360.271C141.362 355.999 143.974 319.357 148.635 317.765Z" fill="#F0C670"/>
<path d="M156.789 333.682L161.065 333.287C164.145 333.003 166.257 334.808 166.26 337.877C166.262 340.947 164.154 343.14 161.074 343.424L156.798 343.819L156.789 333.682ZM160.965 341.508C162.834 341.336 164.057 340.021 164.055 338.08C164.053 336.14 162.828 335.051 160.959 335.223L158.969 335.407L158.974 341.692L160.965 341.508Z" fill="#FFF0B3"/>
<path d="M167.305 337.781C167.302 334.769 169.478 332.338 172.45 332.064C175.408 331.791 177.602 333.804 177.605 336.831C177.607 339.857 175.417 342.275 172.459 342.549C169.487 342.822 167.307 340.793 167.305 337.781ZM175.4 337.034C175.398 335.108 174.133 333.908 172.452 334.063C170.771 334.217 169.508 335.652 169.51 337.578C169.511 339.504 170.777 340.705 172.457 340.551C174.138 340.396 175.401 338.96 175.4 337.034Z" fill="#FFF0B3"/>
<path d="M187.876 330.82L187.885 340.957L186.097 341.122L181.398 335.4L181.403 341.554L179.251 341.752L179.242 331.615L181.044 331.449L185.73 337.172L185.724 331.018L187.876 330.82Z" fill="#FFF0B3"/>
<path d="M196.309 338.005L191.939 338.408L191.107 340.656L188.875 340.862L193.061 330.339L195.213 330.141L199.431 339.889L197.145 340.1L196.309 338.005ZM195.622 336.287L194.126 332.544L192.637 336.563L195.622 336.287Z" fill="#FFF0B3"/>
<path d="M201.889 331.438L198.877 331.715L198.875 329.803L207.078 329.047L207.08 330.959L204.068 331.236L204.075 339.461L201.897 339.662L201.889 331.438Z" fill="#FFF0B3"/>
<path d="M208.242 328.934L210.421 328.734L210.43 338.871L208.251 339.071L208.242 328.934Z" fill="#FFF0B3"/>
<path d="M212.063 333.657C212.06 330.645 214.235 328.214 217.207 327.939C220.165 327.667 222.359 329.68 222.362 332.707C222.365 335.733 220.174 338.151 217.216 338.424C214.245 338.698 212.065 336.669 212.063 333.657ZM220.158 332.91C220.156 330.984 218.891 329.784 217.21 329.938C215.529 330.093 214.265 331.528 214.267 333.454C214.268 335.38 215.534 336.581 217.214 336.426C218.895 336.272 220.16 334.836 220.158 332.91Z" fill="#FFF0B3"/>
<path d="M232.633 326.688L232.642 336.824L230.854 336.99L226.155 331.268L226.16 337.422L224.008 337.62L224 327.483L225.802 327.318L230.488 333.04L230.482 326.887L232.633 326.688Z" fill="#FFF0B3"/>
<path d="M33.2023 315.711C31.5623 317.733 27.4763 322.369 23.8683 324.883C23.8683 324.883 21.2993 327.629 20.9713 328.743C20.6433 329.857 20.9163 332.535 20.9713 333.136C21.0263 333.737 22.0643 336.908 21.8463 338.329C21.6273 339.75 22.0653 341.062 22.1193 341.445C22.1743 341.828 22.7203 343.631 22.9393 345.381C23.1583 347.13 23.3223 349.808 23.5953 350.41C23.8683 351.011 25.8363 353.143 25.8363 353.143L26.2733 353.689C26.2733 353.689 24.9063 355.93 24.8523 357.187C24.7983 358.444 25.3223 359.213 26.5253 360.306C27.7283 361.399 29.1163 362.434 30.2093 362.543C31.3023 362.652 34.1453 361.887 34.9653 361.505C35.7853 361.122 38.5183 359.1 39.0653 358.007C39.6123 356.914 38.8033 354.832 38.6823 354.563C38.2113 353.511 36.3323 352.923 36.3323 352.923C36.3323 352.923 39.8843 351.832 41.5253 350.901C43.4373 349.815 47.7333 348.241 48.6623 347.203C49.5913 346.165 49.5043 343.846 49.3413 343.03C49.1283 341.964 47.2093 340.933 47.2093 340.933L46.2253 340.625C46.2253 340.625 50.3253 339.86 51.1993 339.423C52.0743 338.986 53.3133 337.521 53.3803 336.122C53.4913 333.817 52.5653 332.467 52.5653 332.467C52.5653 332.467 51.5273 330.568 47.2083 330.95C47.2083 330.95 50.1053 329.419 50.3243 327.834C50.5433 326.249 49.9413 323.297 47.3723 322.915C44.8033 322.532 41.1413 322.712 39.0643 323.224C36.9873 323.736 33.3793 323.462 33.3793 323.462C33.3793 323.462 33.0633 323.063 33.2023 322.482V315.711Z" fill="#E7AA9E"/>
<path d="M47.2061 330.953C47.2061 330.953 43.6531 331.773 41.4671 332.21C39.2811 332.647 38.5151 332.593 35.2901 332.921C32.0651 333.249 30.9441 333.741 28.7851 334.178C26.6261 334.615 25.8611 334.752 24.3031 334.178C22.7451 333.604 24.9591 334.615 25.0961 334.971C25.2331 335.326 23.3191 336.228 24.0301 336.174C24.7411 336.119 25.0961 335.436 25.9161 335.217C26.7361 334.998 31.3821 333.744 33.2951 333.565C35.2081 333.386 36.6291 333.168 40.1001 332.785C43.5711 332.402 46.4741 331.39 47.2061 330.953Z" fill="#D68B85"/>
<path d="M47.2093 340.43C47.2093 340.43 43.1643 340.977 41.5793 341.305C39.9943 341.633 38.6553 342.453 35.6483 342.917C32.6423 343.382 31.0293 344.311 29.3623 344.202C27.6953 344.093 26.1103 343.819 25.3993 343.792C24.6883 343.765 24.8803 344.083 25.3993 344.211C25.9183 344.339 24.4423 345.35 24.7983 345.35C25.1533 345.35 25.7273 344.557 26.3563 344.448C26.9853 344.339 28.4333 344.448 30.0463 344.475C31.6593 344.502 33.8663 343.6 35.4823 343.409C37.0983 343.218 39.0663 342.616 40.3233 341.96C41.5803 341.304 42.8653 341.113 44.6413 341.031C46.4163 340.95 47.2093 340.43 47.2093 340.43Z" fill="#D68B85"/>
<path d="M36.3304 352.927C36.3304 352.927 34.7454 353.091 33.1874 353.364C31.6294 353.637 29.6344 354.129 29.1154 354.129C28.5964 354.129 26.2734 353.692 26.2734 353.692C26.2734 353.692 26.6564 354.321 28.4054 354.457C30.1534 354.594 35.8384 352.817 36.3304 352.927Z" fill="#D68B85"/>
<path d="M33.377 323.46C33.377 323.46 31.846 322.83 30.617 323.35C29.387 323.869 30.808 322.777 31.847 322.832C32.886 322.887 31.191 322.012 31.546 321.547C31.901 321.082 32.639 322.859 32.803 322.75C32.967 322.64 32.776 321.82 33.377 323.46Z" fill="#D68B85"/>
<path d="M28.8404 336.473C28.8044 336.552 28.3214 339.069 28.8404 340.6C29.3594 342.13 29.0594 338.769 29.2234 338.536C29.3874 338.304 29.4424 340.108 29.6884 339.807C29.9344 339.506 29.7154 337.948 30.0164 336.965C30.3174 335.982 29.7524 336.582 29.3104 337.211C28.8684 337.84 29.2504 335.571 28.8404 336.473Z" fill="#D68B85"/>
<path d="M27.8146 327.617C27.8146 327.726 27.6326 331.188 28.0336 331.625C28.4346 332.062 28.2886 326.159 27.8146 327.726" fill="#D68B85"/>
<path d="M46.5788 324.334C46.5788 324.334 42.4248 325.208 41.7408 325.946C41.0578 326.684 41.2218 328.16 42.1238 329.198C43.0258 330.237 44.0098 330.209 46.0868 329.881C48.1638 329.553 48.9178 328.843 48.8688 327.367C48.8198 325.892 47.3938 324.149 46.5788 324.334Z" fill="#FF6E65"/>
<path d="M47.9496 333.564C47.9496 333.564 45.6537 333.959 45.4357 334.916C45.2167 335.873 45.0526 337.914 45.9826 338.629C46.9116 339.344 51.5307 338.333 52.0497 337.649C52.5687 336.966 52.6787 334.178 51.7487 333.905C50.8197 333.631 50.2186 333.087 47.9496 333.564Z" fill="#FF6E65"/>
<path d="M45.2624 341.352C45.2624 341.352 47.3543 341.425 47.7913 343.721C48.2283 346.017 47.7913 346.746 47.7913 346.746C47.7913 346.746 44.9124 347.949 43.3094 347.73C41.7064 347.511 40.6123 345.388 40.6493 344.555C40.6853 343.722 41.5603 342.337 41.9613 342.228C42.3623 342.117 45.2624 341.352 45.2624 341.352Z" fill="#FF6E65"/>
<path d="M36.9375 354.461C36.9375 354.461 33.2215 355.527 32.7565 355.937C32.2915 356.347 32.3465 357.932 32.5925 358.506C32.8385 359.08 33.3855 359.435 34.2595 359.381C35.1345 359.326 37.6215 358.206 37.7305 358.179C37.8405 358.15 37.9755 354.488 36.9375 354.461Z" fill="#FF6E65"/>
<path d="M256.842 315.711C258.482 317.733 262.569 322.369 266.177 324.883C266.177 324.883 268.746 327.629 269.074 328.743C269.402 329.857 269.129 332.535 269.074 333.136C269.019 333.737 267.981 336.908 268.199 338.329C268.418 339.75 267.979 341.062 267.925 341.445C267.87 341.828 267.324 343.631 267.105 345.381C266.886 347.13 266.722 349.808 266.449 350.41C266.176 351.011 264.208 353.143 264.208 353.143L263.772 353.689C263.772 353.689 265.138 355.93 265.192 357.187C265.247 358.444 264.722 359.213 263.519 360.306C262.316 361.399 260.929 362.434 259.836 362.543C258.743 362.652 255.899 361.887 255.08 361.505C254.26 361.122 251.527 359.1 250.98 358.007C250.433 356.914 251.243 354.832 251.363 354.563C251.834 353.511 253.713 352.923 253.713 352.923C253.713 352.923 250.161 351.832 248.52 350.901C246.608 349.815 242.313 348.241 241.384 347.203C240.455 346.164 240.541 343.846 240.704 343.03C240.917 341.964 242.837 340.933 242.837 340.933L243.82 340.625C243.82 340.625 239.72 339.86 238.846 339.423C237.971 338.986 236.732 337.521 236.665 336.122C236.554 333.817 237.48 332.467 237.48 332.467C237.48 332.467 238.519 330.568 242.837 330.95C242.837 330.95 239.94 329.419 239.721 327.834C239.502 326.249 240.104 323.297 242.673 322.915C245.242 322.533 248.904 322.712 250.981 323.224C253.058 323.735 256.666 323.462 256.666 323.462C256.666 323.462 256.982 323.063 256.843 322.482V315.711H256.842Z" fill="#E7AA9E"/>
<path d="M242.836 330.953C242.836 330.953 246.389 331.773 248.575 332.21C250.761 332.647 251.527 332.593 254.752 332.921C257.977 333.249 259.098 333.741 261.257 334.178C263.416 334.615 264.181 334.752 265.739 334.178C267.297 333.604 265.083 334.615 264.946 334.971C264.809 335.326 266.722 336.228 266.012 336.174C265.301 336.119 264.946 335.436 264.126 335.217C263.306 334.998 258.66 333.744 256.747 333.565C254.834 333.386 253.413 333.168 249.942 332.785C246.471 332.402 243.567 331.39 242.836 330.953Z" fill="#D68B85"/>
<path d="M242.836 340.43C242.836 340.43 246.881 340.977 248.466 341.305C250.051 341.633 251.39 342.453 254.397 342.917C257.403 343.382 259.016 344.311 260.683 344.202C262.35 344.093 263.935 343.819 264.646 343.792C265.357 343.765 265.165 344.083 264.646 344.211C264.127 344.339 265.603 345.35 265.247 345.35C264.892 345.35 264.318 344.557 263.689 344.448C263.06 344.339 261.612 344.448 259.999 344.475C258.387 344.502 256.179 343.6 254.564 343.409C252.948 343.218 250.98 342.616 249.723 341.96C248.466 341.304 247.181 341.113 245.405 341.031C243.628 340.95 242.836 340.43 242.836 340.43Z" fill="#D68B85"/>
<path d="M253.711 352.927C253.711 352.927 255.296 353.091 256.854 353.364C258.412 353.637 260.407 354.129 260.926 354.129C261.445 354.129 263.768 353.692 263.768 353.692C263.768 353.692 263.385 354.321 261.636 354.457C259.888 354.594 254.203 352.817 253.711 352.927Z" fill="#D68B85"/>
<path d="M256.664 323.46C256.664 323.46 258.194 322.83 259.424 323.35C260.654 323.869 259.233 322.777 258.194 322.832C257.155 322.887 258.85 322.012 258.495 321.547C258.14 321.082 257.402 322.859 257.238 322.75C257.074 322.64 257.265 321.82 256.664 323.46Z" fill="#D68B85"/>
<path d="M261.206 336.473C261.242 336.552 261.725 339.069 261.206 340.6C260.687 342.13 260.987 338.769 260.823 338.536C260.659 338.303 260.604 340.108 260.358 339.807C260.112 339.506 260.331 337.948 260.03 336.965C259.729 335.981 260.294 336.582 260.736 337.211C261.178 337.84 260.796 335.571 261.206 336.473Z" fill="#D68B85"/>
<path d="M262.225 327.617C262.225 327.726 262.407 331.188 262.006 331.625C261.605 332.062 261.751 326.159 262.225 327.726" fill="#D68B85"/>
<path d="M243.465 324.334C243.465 324.334 247.619 325.208 248.302 325.946C248.985 326.684 248.821 328.16 247.919 329.198C247.017 330.237 246.033 330.209 243.956 329.881C241.879 329.553 241.125 328.843 241.174 327.367C241.224 325.892 242.65 324.149 243.465 324.334Z" fill="#FF6E65"/>
<path d="M242.097 333.564C242.097 333.564 244.393 333.959 244.611 334.916C244.83 335.873 244.994 337.914 244.064 338.629C243.135 339.344 238.516 338.333 237.997 337.649C237.478 336.966 237.368 334.178 238.298 333.905C239.227 333.631 239.828 333.087 242.097 333.564Z" fill="#FF6E65"/>
<path d="M244.786 341.352C244.786 341.352 242.694 341.425 242.257 343.721C241.82 346.017 242.257 346.746 242.257 346.746C242.257 346.746 245.136 347.949 246.739 347.73C248.342 347.511 249.436 345.388 249.399 344.555C249.363 343.722 248.488 342.337 248.087 342.228C247.686 342.117 244.786 341.352 244.786 341.352Z" fill="#FF6E65"/>
<path d="M253.109 354.461C253.109 354.461 256.825 355.527 257.29 355.937C257.755 356.347 257.7 357.932 257.454 358.506C257.208 359.08 256.661 359.435 255.787 359.381C254.912 359.326 252.425 358.206 252.316 358.179C252.207 358.15 252.071 354.488 253.109 354.461Z" fill="#FF6E65"/>
<path d="M283.88 228.32H283.861C283.861 228.32 283.864 235.916 276.859 238.247C276.859 238.247 283.88 244.818 283.87 251.389C283.86 244.818 290.881 238.247 290.881 238.247C283.877 235.917 283.88 228.32 283.88 228.32Z" fill="#203737"/>
<path d="M292.146 221.258H292.135C292.135 221.258 292.137 225.158 288.25 226.354C288.25 226.354 292.146 229.728 292.14 233.101C292.135 229.727 296.03 226.354 296.03 226.354C292.145 225.158 292.146 221.258 292.146 221.258Z" fill="#203737"/>
<path d="M128.664 379.337V332.023" stroke="#203737" stroke-width="2" stroke-miterlimit="10" stroke-linecap="round"/>
<path d="M116.724 17.2266C116.724 17.2266 115.754 27.9356 118.464 34.5586" stroke="#203737" stroke-width="2" stroke-miterlimit="10" stroke-linecap="round" stroke-linejoin="round"/>
<defs>
<linearGradient id="paint0_linear_4057_10309" x1="199.047" y1="78.8126" x2="176.426" y2="77.4255" gradientUnits="userSpaceOnUse">
<stop offset="0.5023" stop-color="#F0C2BF"/>
<stop offset="1" stop-color="#E0AAA9"/>
</linearGradient>
</defs>
</svg>
